# xmcd
#
# Track frame offsets:
#	207
#	13997
#	26327
#	41990
#	58497
#	73522
#	87182
#	106207
#	122750
#	141845
#	157517
#	169890
#
# Disc length: 2399 seconds
#
# Revision: 1
# Processed by: cddbd v1.4PL0 Copyright (c) Steve Scherf et al.
# Submitted via: audiograbber 1.82.01
#
DISCID=a0095d0c
DTITLE=Elmore James - Golden Classics-Guitars in Orbit
DYEAR=1900
DGENRE=Blues
TTITLE0=Hand in Hand
TTITLE1=I Have a Right to Love My Baby
TTITLE2=Everyday I Have the Blues
TTITLE3=Dust My Broom
TTITLE4=It Hurts Me Too
TTITLE5=Talk to Me Baby
TTITLE6=Twelve Year Old Boy
TTITLE7=I Believe
TTITLE8=I Gotta Go Now
TTITLE9=Make My Dreams Come True
TTITLE10=Mean Mistreatin' Mama
TTITLE11=Sunnyland
EXTD=Collectables CD 5112
EXTT0=
EXTT1=
EXTT2=
EXTT3=
EXTT4=
EXTT5=
EXTT6=
EXTT7=
EXTT8=
EXTT9=
EXTT10=
EXTT11=
PLAYORDER=
